<svg id="Слой_1" data-name="Слой 1" xmlns="http://www.w3.org/2000/svg" viewBox="0 0 697.48 719.62"><defs><style>.cls-1{fill:#125428;}.cls-1,.cls-2{fill-rule:evenodd;}.cls-2{fill:#13a538;}</style></defs><path class="cls-1" d="M800.17,41.29,779.69,29.47a33.32,33.32,0,0,0-45.51,12.19l-95,164.49-74-74a33.07,33.07,0,0,0-46.78,0l-17.06,17.06a33.07,33.07,0,0,0,0,46.78l107.4,107.4c12.25,12.25,36.38,10,48.4,8.22,11.47-1.73,29-6.19,37.37-20.67L812.36,86.81A33.31,33.31,0,0,0,800.17,41.29Z" transform="translate(-334.4 -25)"/><path class="cls-2" d="M1026.41,412.93l4.78-23.16a33.33,33.33,0,0,0-25.91-39.36l-186-38.33,46.94-93.56a33.08,33.08,0,0,0-14.74-44.4L829.9,163.3A33.08,33.08,0,0,0,785.5,178L717.39,313.79c-7.77,15.49,1.94,37.69,7.44,48.53,5.25,10.34,15,25.58,31.39,29l230.84,47.56A33.32,33.32,0,0,0,1026.41,412.93Z" transform="translate(-334.4 -25)"/><path class="cls-2" d="M736.14,744.49l23.56-2a33.32,33.32,0,0,0,30.35-36L773.81,517.19l103.06,18.35a33.08,33.08,0,0,0,38.37-26.77L919.46,485a33.06,33.06,0,0,0-26.76-38.36L743.17,420c-17.07-3-35.58,12.59-44.4,21-8.42,8-20.25,21.67-18.83,38.34l20.15,234.82A33.32,33.32,0,0,0,736.14,744.49Z" transform="translate(-334.4 -25)"/><path class="cls-2" d="M337,569.38,346,591.23a33.33,33.33,0,0,0,43.54,18L565,536.53,578.68,640.3a33.09,33.09,0,0,0,37.12,28.48l23.92-3.16a33.08,33.08,0,0,0,28.47-37.12L648.33,477.93c-2.26-17.19-22.76-30.11-33.4-36-10.15-5.61-26.78-12.74-42.24-6.34L355,525.84A33.32,33.32,0,0,0,337,569.38Z" transform="translate(-334.4 -25)"/><path class="cls-2" d="M377.24,140l-17.7,15.7a33.32,33.32,0,0,0-2.8,47L482.79,344.83l-93.62,46.84a33.07,33.07,0,0,0-14.78,44.38l10.8,21.58a33.07,33.07,0,0,0,44.38,14.78l135.83-68c15.5-7.76,21-31.35,23.09-43.33,2-11.42,3.3-29.47-7.8-42L424.27,142.84A33.31,33.31,0,0,0,377.24,140Z" transform="translate(-334.4 -25)"/></svg>